<svg width="61" height="44" viewBox="0 0 61 44" fill="none" xmlns="http://www.w3.org/2000/svg">
<g clip-path="url(#clip0_423_3084)">
<path d="M41.5661 29.4508L45.7715 25.2906C43.1651 24.0363 43.185 20.5649 43.185 20.5649H36.5957C36.5957 27.1855 41.5643 29.4508 41.5643 29.4508H41.5661Z" fill="#111111"/>
<path d="M0.0449219 30.5817H6.39001V17.5105L0.0449219 23.7428V30.5817Z" fill="#111111"/>
<path d="M32.7372 30.5996V0.640625H23.5651L16.5941 21.1626L13.0852 10.9347L8.5 15.4403L13.9136 30.5996H19.0486L26.4826 9.37621V30.5996H32.7372Z" fill="#111111"/>
<path d="M49.4519 0C37.3875 0 37.7059 8.59422 37.7059 8.84652C37.7059 9.09882 37.6462 12.7562 40.0428 14.6243C42.4394 16.4924 45.4383 17.124 46.755 17.5034C48.0718 17.8809 52.0782 19.0547 52.0782 19.0547L56.9365 14.2486C56.9365 14.2486 55.9815 13.7797 54.1709 13.225C52.3603 12.6704 49.2981 11.9689 48.5367 11.7453C47.7245 11.5091 45.167 10.9741 44.4109 9.71078C43.8538 8.78032 43.5047 5.11753 48.9961 5.11753C54.4874 5.11753 54.6882 8.95746 54.6882 9.54079H60.9989C60.9989 9.54079 61.5162 0 49.4519 0Z" fill="#111111"/>
<path d="M5.22894 42.4791V40.1458C5.22894 40.1226 5.18553 37.7875 2.74011 37.7875C1.53729 37.7875 0.772191 38.4728 0.537054 38.836L0.394163 39.0543L1.08872 39.5625L1.25513 39.3424C1.25513 39.3424 1.75434 38.6983 2.73468 38.6983C3.71502 38.6983 4.10029 39.4355 4.14912 39.7915C4.16902 39.9347 4.18168 40.0743 4.18711 40.1959C3.78014 40.0456 3.11814 39.8524 2.42177 39.8524C0.746868 39.8524 -0.00195312 40.8974 -0.00195312 41.9316C-0.00195312 43.2002 0.940404 43.9876 2.45794 43.9876C3.2357 43.9876 3.90132 43.5885 4.3101 43.2718C4.33181 43.4203 4.35713 43.5617 4.38426 43.6404L4.44937 43.8283H5.52377L5.40439 43.4651C5.40439 43.4597 5.22714 42.9193 5.22714 42.4809L5.22894 42.4791ZM1.02542 41.8976C1.02542 41.7079 1.09415 40.7649 2.45794 40.7649C3.25922 40.7649 3.93207 41.062 4.20519 41.2015V42.1087C4.03155 42.3324 3.37679 43.0804 2.38921 43.0804C1.09053 43.0804 1.02361 42.0944 1.02361 41.8976H1.02542Z" fill="#111111"/>
<path d="M10.0203 37.7857C9.60969 37.8036 9.03089 37.9431 8.42677 38.4495C8.40688 38.3279 8.38336 38.208 8.35623 38.1167L8.29473 37.9163L7.24023 37.9342L7.35599 38.2903C7.35599 38.2903 7.52783 38.8253 7.52783 39.3567V43.8355H8.53711V39.6484C8.74511 39.3854 9.58256 38.4424 10.5882 38.8324L10.836 38.9291L11.2249 38.0773L10.9862 37.9575C10.9464 37.9378 10.5738 37.7588 10.0203 37.7839V37.7857Z" fill="#111111"/>
<path d="M17.0183 42.0818C16.4395 42.794 15.8734 43.0982 15.1282 43.0982C14.383 43.0982 13.2398 42.3073 13.2398 40.8776C13.2398 39.4479 14.2491 38.6856 15.2005 38.6856C16.1519 38.6856 16.7886 39.4837 16.794 39.4908L16.9677 39.727L17.6984 39.1401L17.5103 38.9236C16.8501 38.1667 16.0759 37.7838 15.2077 37.7838C13.2597 37.7838 12.207 39.3728 12.207 40.8686C12.207 42.1319 13.1277 44 15.1028 44C17.078 44 17.7129 42.6168 17.7436 42.5578L17.8521 42.3449L17.1865 41.8796L17.0219 42.0818H17.0183Z" fill="#111111"/>
<path d="M48.1942 42.0818C47.6154 42.794 47.0493 43.0982 46.3041 43.0982C45.5589 43.0982 44.4158 42.3073 44.4158 40.8776C44.4158 39.4479 45.425 38.6856 46.3764 38.6856C47.3278 38.6856 47.9645 39.4837 47.9699 39.4908L48.1436 39.727L48.8743 39.1401L48.6862 38.9236C48.026 38.1667 47.2519 37.7838 46.3837 37.7838C44.4356 37.7838 43.3848 39.3728 43.3848 40.8686C43.3848 42.1319 44.3054 44 46.2806 44C48.2557 44 48.8906 42.6168 48.9213 42.5578L49.0299 42.3449L48.3642 41.8796L48.1997 42.0818H48.1942Z" fill="#111111"/>
<path d="M22.3405 37.7839C21.5863 37.7839 20.9876 38.1131 20.5987 38.4119V35.6599H19.584V43.8372H20.5987V39.6645C21.0183 39.201 21.6387 38.6875 22.3279 38.6875C23.6772 38.6875 23.8219 39.8899 23.8345 40.0617V43.8372H24.8474V40.1243C24.8474 38.7036 23.8635 37.7857 22.3405 37.7857V37.7839Z" fill="#111111"/>
<path d="M28.1642 37.9377H27.1621V43.8354H28.1642V37.9377Z" fill="#111111"/>
<path d="M27.6623 37.0663C28.0258 37.0663 28.3207 36.7747 28.3207 36.415C28.3207 36.0553 28.0258 35.7637 27.6623 35.7637C27.2987 35.7637 27.0039 36.0553 27.0039 36.415C27.0039 36.7747 27.2987 37.0663 27.6623 37.0663Z" fill="#111111"/>
<path d="M34.1323 42.5865C33.8628 42.9139 33.539 43.0803 33.1718 43.0803C32.7811 43.0803 32.5026 42.8978 32.3217 42.522C32.1806 42.2322 32.1535 41.9316 32.1499 41.8868V38.8432H34.0509V37.936H32.1499V36.3721H31.3251L31.1677 37.936H29.9902V38.8432H31.1406V41.9495C31.1406 42.9318 31.9075 43.9929 33.1483 43.9929C34.3891 43.9929 34.8576 43.1322 34.8793 43.0964L35.0131 42.8728L34.2932 42.3896L34.1305 42.5865H34.1323Z" fill="#111111"/>
<path d="M54.1909 42.5865C53.9214 42.9139 53.5976 43.0803 53.2304 43.0803C52.8397 43.0803 52.5612 42.8978 52.3803 42.522C52.2392 42.2322 52.2121 41.9316 52.2085 41.8868V38.8432H54.1095V37.936H52.2085V36.3721H51.3837L51.2263 37.936H50.0488V38.8432H51.1992V41.9495C51.1992 42.9318 51.9661 43.9929 53.2069 43.9929C54.4477 43.9929 54.9162 43.1322 54.9379 43.0964L55.0717 42.8728L54.3518 42.3896L54.1891 42.5865H54.1909Z" fill="#111111"/>
<path d="M41.744 41.1746C41.9321 40.8024 41.8181 39.863 41.3551 39.1097C40.9897 38.5157 40.2771 37.8035 38.9513 37.7838H38.9477C36.788 37.7838 36.0898 39.8773 36.0898 40.8919C36.0898 42.1391 36.873 43.9946 39.0273 43.9946C40.1035 43.9946 40.9952 43.5079 41.6065 42.5882L41.7548 42.3645L41.0169 41.851L40.8595 42.0997C40.8342 42.1409 40.2156 43.0982 39.0273 43.0982C37.9601 43.0982 37.2981 42.2572 37.1353 41.3428L41.668 41.3285L41.7458 41.1764L41.744 41.1746ZM37.1353 40.4213C37.3288 39.2743 38.1735 38.6767 38.9694 38.6767C39.9895 38.6767 40.6569 39.6197 40.7872 40.4213H37.1353Z" fill="#111111"/>
<path d="M58.815 40.3497C57.3988 39.9972 57.3988 39.6626 57.3988 39.4837C57.3988 39.3244 57.6086 38.6839 58.5799 38.6839C59.5512 38.6839 60.1083 39.3835 60.1137 39.3906L60.2801 39.5893L61 39.0793L60.8462 38.8556C60.6527 38.5765 59.8351 37.7784 58.645 37.7784C56.9791 37.7784 56.3587 38.8288 56.3587 39.4908C56.3587 40.3336 56.9954 40.874 58.4225 41.2426C59.9509 41.6363 59.9509 41.9637 59.9509 42.1588C59.9509 42.4021 59.6904 43.0946 58.5365 43.0946C57.3825 43.0946 56.8453 42.1355 56.8218 42.0943L56.668 41.8367L55.9102 42.3592L56.0766 42.5882C56.4618 43.1143 57.292 43.9982 58.5202 43.9982C60.1969 43.9982 60.9602 43.032 60.9602 42.1337C60.9602 41.0959 60.1028 40.67 58.815 40.3497Z" fill="#111111"/>
</g>
<defs>
<clipPath id="clip0_423_3084">
<rect width="61" height="44" fill="white"/>
</clipPath>
</defs>
</svg>
