<svg width="28" height="28" viewBox="0 0 28 28" fill="none" xmlns="http://www.w3.org/2000/svg">
<path d="M14.0007 10.2083C12.995 10.2083 12.0306 10.6077 11.3195 11.3188C10.6085 12.0299 10.209 12.9943 10.209 13.9999C10.209 15.0055 10.6085 15.97 11.3195 16.681C12.0306 17.3921 12.995 17.7916 14.0007 17.7916C15.0063 17.7916 15.9707 17.3921 16.6818 16.681C17.3928 15.97 17.7923 15.0055 17.7923 13.9999C17.7923 12.9943 17.3928 12.0299 16.6818 11.3188C15.9707 10.6077 15.0063 10.2083 14.0007 10.2083Z" fill="black"/>
<path fill-rule="evenodd" clip-rule="evenodd" d="M7.89774 3.59573C11.9531 3.14648 16.0457 3.14648 20.1011 3.59573C22.3166 3.84306 24.1027 5.58723 24.3629 7.81089C24.8435 11.923 24.8435 16.0771 24.3629 20.1892C24.1027 22.4129 22.3166 24.1571 20.1022 24.4056C16.0465 24.8549 11.9535 24.8549 7.89774 24.4056C5.68224 24.1571 3.89607 22.4129 3.63591 20.1904C3.15522 16.0779 3.15522 11.9234 3.63591 7.81089C3.89607 5.58723 5.68224 3.84306 7.89774 3.59573ZM19.8327 7.00006C19.5233 7.00006 19.2266 7.12298 19.0078 7.34177C18.789 7.56056 18.6661 7.85731 18.6661 8.16673C18.6661 8.47615 18.789 8.77289 19.0078 8.99168C19.2266 9.21048 19.5233 9.33339 19.8327 9.33339C20.1422 9.33339 20.4389 9.21048 20.6577 8.99168C20.8765 8.77289 20.9994 8.47615 20.9994 8.16673C20.9994 7.85731 20.8765 7.56056 20.6577 7.34177C20.4389 7.12298 20.1422 7.00006 19.8327 7.00006ZM8.45774 14.0001C8.45774 12.5303 9.04159 11.1208 10.0809 10.0815C11.1201 9.04225 12.5297 8.45839 13.9994 8.45839C15.4691 8.45839 16.8787 9.04225 17.918 10.0815C18.9572 11.1208 19.5411 12.5303 19.5411 14.0001C19.5411 15.4698 18.9572 16.8793 17.918 17.9186C16.8787 18.9579 15.4691 19.5417 13.9994 19.5417C12.5297 19.5417 11.1201 18.9579 10.0809 17.9186C9.04159 16.8793 8.45774 15.4698 8.45774 14.0001Z" fill="black"/>
</svg>
