<svg width="80" height="59" fill="none" xmlns="http://www.w3.org/2000/svg">
  <g clip-path="url(#a)" fill="#111">
    <path
      d="m54.515 39.49 5.515-5.578c-3.418-1.682-3.392-6.336-3.392-6.336h-8.642c0 8.877 6.516 11.915 6.516 11.915h.003zM.059 41.007H8.38V23.48L.059 31.837v9.17zM42.933 41.031V.86h-12.03l-9.141 27.518-4.602-13.714-6.014 6.041 7.1 20.327h6.735l9.75-28.458V41.03h8.202zM64.855 0C49.033 0 49.45 11.524 49.45 11.862c0 .339-.078 5.243 3.065 7.748s7.076 3.352 8.803 3.86c1.727.507 6.981 2.08 6.981 2.08l6.372-6.444s-1.253-.629-3.627-1.372c-2.375-.744-6.39-1.685-7.39-1.985-1.065-.316-4.419-1.034-5.41-2.728-.73-1.247-1.189-6.159 6.013-6.159s7.465 5.15 7.465 5.931H80S80.677 0 64.855 0zM6.858 56.96v-3.128c0-.031-.057-3.163-3.264-3.163-1.577 0-2.58.92-2.89 1.407l-.186.292.91.682.219-.295s.654-.864 1.94-.864 1.791.988 1.855 1.466c.026.192.043.379.05.542-.534-.202-1.402-.46-2.315-.46-2.197 0-3.179 1.4-3.179 2.787 0 1.702 1.236 2.757 3.226 2.757 1.02 0 1.893-.535 2.43-.96.028.2.06.39.096.495l.086.252h1.409l-.157-.487c0-.008-.232-.732-.232-1.32l.002-.002zm-5.513-.78c0-.254.09-1.518 1.88-1.518 1.05 0 1.932.398 2.29.585v1.217c-.227.3-1.086 1.303-2.381 1.303-1.703 0-1.791-1.322-1.791-1.586h.002zM13.142 50.667c-.538.024-1.297.211-2.09.89a3.926 3.926 0 0 0-.092-.446l-.081-.269-1.383.024.152.478s.225.717.225 1.43v6.005h1.324v-5.614c.273-.353 1.371-1.617 2.69-1.094l.325.13.51-1.143-.313-.16c-.052-.027-.541-.267-1.267-.233v.002zM22.32 56.428c-.76.955-1.502 1.363-2.48 1.363-.977 0-2.476-1.06-2.476-2.978 0-1.917 1.324-2.94 2.572-2.94 1.247 0 2.082 1.071 2.09 1.08l.227.317.959-.787-.247-.29c-.866-1.015-1.881-1.528-3.02-1.528-2.555 0-3.935 2.13-3.935 4.136 0 1.694 1.207 4.199 3.797 4.199s3.424-1.855 3.464-1.934l.142-.285-.873-.624-.216.27h-.004zM63.206 56.428c-.76.955-1.502 1.363-2.479 1.363-.977 0-2.476-1.06-2.476-2.978 0-1.917 1.323-2.94 2.57-2.94 1.249 0 2.084 1.071 2.09 1.08l.228.317.959-.787-.247-.29c-.866-1.015-1.881-1.528-3.02-1.528-2.554 0-3.933 2.13-3.933 4.136 0 1.694 1.208 4.199 3.798 4.199s3.423-1.855 3.463-1.934l.143-.285-.873-.624-.216.27h-.007zM29.299 50.665c-.99 0-1.775.441-2.285.842v-3.69h-1.33v10.965h1.33v-5.596c.55-.621 1.364-1.31 2.268-1.31 1.77 0 1.96 1.613 1.976 1.843v5.063h1.329v-4.979c0-1.905-1.291-3.136-3.288-3.136v-.002zM36.937 50.871h-1.314v7.908h1.314v-7.908zM36.28 49.703a.868.868 0 0 0 .863-.874.869.869 0 0 0-.864-.873.869.869 0 0 0-.863.873c0 .482.387.873.864.873zM44.764 57.105c-.353.439-.778.662-1.26.662-.512 0-.877-.245-1.114-.749a2.613 2.613 0 0 1-.226-.852v-4.08h2.493v-1.217h-2.493v-2.097h-1.081l-.207 2.097h-1.544v1.216h1.509v4.165c0 1.318 1.005 2.74 2.633 2.74 1.627 0 2.241-1.154 2.27-1.202l.175-.3-.944-.647-.213.264h.002zM71.07 57.105c-.353.439-.777.662-1.259.662-.512 0-.877-.245-1.115-.749a2.613 2.613 0 0 1-.225-.852v-4.08h2.493v-1.217h-2.493v-2.097h-1.082l-.206 2.097h-1.544v1.216h1.508v4.165c0 1.318 1.006 2.74 2.633 2.74 1.628 0 2.242-1.154 2.27-1.202l.176-.3-.944-.647-.213.264h.002zM54.747 55.211c.247-.499.098-1.758-.51-2.768-.479-.797-1.413-1.752-3.152-1.778h-.005c-2.832 0-3.748 2.807-3.748 4.167 0 1.673 1.027 4.16 3.852 4.16 1.412 0 2.581-.652 3.383-1.885l.194-.3-.967-.689-.207.334c-.033.055-.844 1.339-2.403 1.339-1.4 0-2.267-1.128-2.48-2.354l5.944-.02.102-.203-.003-.003zm-6.044-1.01c.254-1.538 1.362-2.34 2.405-2.34 1.338 0 2.214 1.265 2.384 2.34h-4.789zM77.136 54.105c-1.858-.472-1.858-.921-1.858-1.16 0-.215.276-1.074 1.55-1.074 1.273 0 2.004.939 2.011.948l.218.267.944-.684-.201-.3c-.254-.374-1.326-1.444-2.887-1.444-2.185 0-2.998 1.408-2.998 2.296 0 1.13.834 1.854 2.706 2.349 2.005.528 2.005.967 2.005 1.228 0 .326-.342 1.255-1.856 1.255-1.513 0-2.217-1.286-2.248-1.341l-.202-.346-.994.7.218.308c.506.705 1.594 1.89 3.205 1.89 2.2 0 3.2-1.295 3.2-2.5 0-1.391-1.124-1.962-2.813-2.392z"/>
  </g>
  <defs>
    <clipPath id="a">
      <path fill="#fff" d="M0 0h80v59H0z"/>
    </clipPath>
  </defs>
</svg>
