<svg width="34" height="34" viewBox="0 0 34 34" fill="none" xmlns="http://www.w3.org/2000/svg">
<path d="M29.8333 0.5H4.16667C2.15 0.5 0.5 2.15 0.5 4.16667V29.8333C0.5 31.85 2.15 33.5 4.16667 33.5H29.8333C31.85 33.5 33.5 31.85 33.5 29.8333V4.16667C33.5 2.15 31.85 0.5 29.8333 0.5ZM12.4167 16.0833C12.4167 17.55 11.1333 18.8333 9.66667 18.8333H7.83333V22.5H5.08333V11.5H9.66667C11.1333 11.5 12.4167 12.7833 12.4167 14.25V16.0833ZM21.5833 19.75C21.5833 21.2167 20.3 22.5 18.8333 22.5H14.25V11.5H18.8333C20.3 11.5 21.5833 12.7833 21.5833 14.25V19.75ZM28.9167 14.25H26.1667V16.0833H28.9167V18.8333H26.1667V22.5H23.4167V11.5H28.9167V14.25ZM17 14.25H18.8333V19.75H17V14.25ZM7.83333 14.25H9.66667V16.0833H7.83333V14.25Z" fill="#222222"/>
</svg>
